<svg width="1920" height="1261" viewBox="0 0 1920 1261" fill="none" xmlns="http://www.w3.org/2000/svg">
<path d="M-270.544 294.016C-204.163 262.414 15.7302 219.445 364.256 300.38C799.912 401.548 925.62 532.025 1287.88 651.077C1577.68 746.32 1900.94 805.19 2026.35 822.72" stroke="#FF64B6" stroke-opacity="0.21" stroke-width="4.85182" stroke-linecap="round"/>
<path d="M-281.877 314.615C-215.496 283.013 4.39718 240.043 352.922 320.978C788.579 422.147 914.287 552.623 1276.54 671.676C1566.35 766.918 1889.61 825.788 2015.01 843.318" stroke="#FF64B6" stroke-opacity="0.21" stroke-width="4.85182" stroke-linecap="round"/>
<path d="M-293.204 335.216C-226.824 303.614 -6.93046 260.644 341.595 341.579C777.251 442.748 902.959 573.224 1265.22 692.277C1555.02 787.519 1878.28 846.389 2003.69 863.919" stroke="#FF64B6" stroke-opacity="0.21" stroke-width="4.85182" stroke-linecap="round"/>
<path d="M-304.544 355.811C-238.163 324.209 -18.2703 281.24 330.255 362.175C765.912 463.343 891.619 593.82 1253.88 712.872C1543.68 808.114 1866.94 866.985 1992.35 884.514" stroke="#FF64B6" stroke-opacity="0.21" stroke-width="4.85182" stroke-linecap="round"/>
<path d="M-315.877 376.409C-249.496 344.808 -29.6033 301.838 318.922 382.773C754.579 483.941 880.286 614.418 1242.54 733.47C1532.35 828.713 1855.61 887.583 1981.01 905.113" stroke="#FF64B6" stroke-opacity="0.21" stroke-width="4.85182" stroke-linecap="round"/>
<path d="M-327.21 397.008C-260.829 365.406 -40.9363 322.436 307.589 403.371C743.246 504.54 868.953 635.016 1231.21 754.069C1521.01 849.311 1844.27 908.181 1969.68 925.711" stroke="#FF64B6" stroke-opacity="0.21" stroke-width="4.85182" stroke-linecap="round"/>
<path d="M-338.539 417.608C-272.158 386.006 -52.2654 343.036 296.26 423.971C731.917 525.14 857.624 655.616 1219.88 774.669C1509.69 869.911 1832.95 928.781 1958.35 946.311" stroke="#FF64B6" stroke-opacity="0.21" stroke-width="4.85182" stroke-linecap="round"/>
<path d="M-349.973 438.174C-283.567 406.566 -63.6155 363.567 284.951 444.426C720.659 545.5 846.346 675.93 1208.63 794.898C1498.46 890.071 1821.77 948.875 1947.19 966.379" stroke="#FF64B6" stroke-opacity="0.21" stroke-width="4.85182" stroke-linecap="round"/>
</svg>
