<svg width="34" height="209" viewBox="0 0 34 209" fill="none" xmlns="http://www.w3.org/2000/svg">
<path d="M11.6667 63C11.6667 65.9455 14.0545 68.3333 17 68.3333C19.9455 68.3333 22.3333 65.9455 22.3333 63C22.3333 60.0545 19.9455 57.6667 17 57.6667C14.0545 57.6667 11.6667 60.0545 11.6667 63ZM16 63L16 151L18 151L18 63L16 63Z" fill="white"/>
<rect x="2.15088" y="150" width="29.6981" height="58" rx="14.8491" stroke="white" stroke-width="2"/>
<circle cx="16.4337" cy="192.585" r="9.62264" fill="white"/>
<path d="M22.7601 1L12.0934 9H3.56006V21H12.0934L22.7601 29V1Z" stroke="white" stroke-width="2" stroke-linecap="round" stroke-linejoin="round"/>
<path d="M1 2L33 27.6667" stroke="white" stroke-width="2" stroke-linecap="round" stroke-linejoin="round"/>
</svg>
